# xmcd CD database file
#
# Track frame offsets:
#	180
#	15329
#	25619
#	40700
#	71107
#	81624
#	108091
#	124460
#	173741
#	189437
#	214236
#	232494
#	255674
#	273561
#	296975
#
# Disc length: 4602 seconds
#
# Revision: 7
# Processed by: cddbd v1.5.2PL0 Copyright (c) Steve Scherf et al.
# Submitted via: CDex 1.51
#
DISCID=e111f80f
DTITLE=Various Artist - Harmony Jazz CD1
DYEAR=2001
DGENRE=Jazz
TTITLE0=Sidney Bechet - Petite Fleur
TTITLE1=Louis Armstrong - What A Wonderful World
TTITLE2=Miles Davis - Summertime
TTITLE3=Dave Brubeck - Blue Rondo A La Turk
TTITLE4=Chet Baker - My Funny Valentine
TTITLE5=Stan Getz and Charlie Byrd - Desafinado
TTITLE6=Nina Simone - My Baby Just Cares For Me
TTITLE7=Cannonball Adderley - Autumn Leaves
TTITLE8=Nat King Cole - Unforgattable
TTITLE9=Herbie Hancock - Cantaloupe Island
TTITLE10=Art Blakey - Moanin
TTITLE11=Lee Morgan - The Sidewinder
TTITLE12=Kenny Burrell - Midnight Blue
TTITLE13=Horace Silver - Song For My Father
TTITLE14=John Coltrane - Blue Train
EXTD=YEAR: 2001
EXTT0=
EXTT1=
EXTT2=
EXTT3=
EXTT4=
EXTT5=
EXTT6=
EXTT7=
EXTT8=
EXTT9=
EXTT10=
EXTT11=
EXTT12=
EXTT13=
EXTT14=
PLAYORDER=
